# Tiled2Unity generated file. Do not modify by hand.
# Wavefront file for 'HwanseMap_mesh_0002.obj'

# Vertices (Count = 612)
v -10.24 -19.84 0
v -10.88 -19.84 0
v -10.88 -19.2 0
v -10.24 -19.2 0
v -10.88 -19.84 0
v -11.52 -19.84 0
v -11.52 -19.2 0
v -10.88 -19.2 0
v -11.52 -19.84 0
v -12.16 -19.84 0
v -12.16 -19.2 0
v -11.52 -19.2 0
v -30.72 -19.84 0
v -31.36 -19.84 0
v -31.36 -19.2 0
v -30.72 -19.2 0
v -31.36 -19.84 0
v -32 -19.84 0
v -32 -19.2 0
v -31.36 -19.2 0
v -32 -19.84 0
v -32.64 -19.84 0
v -32.64 -19.2 0
v -32 -19.2 0
v -51.84 -19.84 0
v -52.48 -19.84 0
v -52.48 -19.2 0
v -51.84 -19.2 0
v -52.48 -19.84 0
v -53.12 -19.84 0
v -53.12 -19.2 0
v -52.48 -19.2 0
v -53.12 -19.84 0
v -53.76 -19.84 0
v -53.76 -19.2 0
v -53.12 -19.2 0
v -10.24 -20.48 0
v -10.88 -20.48 0
v -10.88 -19.84 0
v -10.24 -19.84 0
v -10.88 -20.48 0
v -11.52 -20.48 0
v -11.52 -19.84 0
v -10.88 -19.84 0
v -11.52 -20.48 0
v -12.16 -20.48 0
v -12.16 -19.84 0
v -11.52 -19.84 0
v -30.72 -20.48 0
v -31.36 -20.48 0
v -31.36 -19.84 0
v -30.72 -19.84 0
v -31.36 -20.48 0
v -32 -20.48 0
v -32 -19.84 0
v -31.36 -19.84 0
v -32 -20.48 0
v -32.64 -20.48 0
v -32.64 -19.84 0
v -32 -19.84 0
v -51.84 -20.48 0
v -52.48 -20.48 0
v -52.48 -19.84 0
v -51.84 -19.84 0
v -52.48 -20.48 0
v -53.12 -20.48 0
v -53.12 -19.84 0
v -52.48 -19.84 0
v -53.12 -20.48 0
v -53.76 -20.48 0
v -53.76 -19.84 0
v -53.12 -19.84 0
v -10.24 -21.12 0
v -10.88 -21.12 0
v -10.88 -20.48 0
v -10.24 -20.48 0
v -10.88 -21.12 0
v -11.52 -21.12 0
v -11.52 -20.48 0
v -10.88 -20.48 0
v -11.52 -21.12 0
v -12.16 -21.12 0
v -12.16 -20.48 0
v -11.52 -20.48 0
v -30.72 -21.12 0
v -31.36 -21.12 0
v -31.36 -20.48 0
v -30.72 -20.48 0
v -31.36 -21.12 0
v -32 -21.12 0
v -32 -20.48 0
v -31.36 -20.48 0
v -32 -21.12 0
v -32.64 -21.12 0
v -32.64 -20.48 0
v -32 -20.48 0
v -51.84 -21.12 0
v -52.48 -21.12 0
v -52.48 -20.48 0
v -51.84 -20.48 0
v -52.48 -21.12 0
v -53.12 -21.12 0
v -53.12 -20.48 0
v -52.48 -20.48 0
v -53.12 -21.12 0
v -53.76 -21.12 0
v -53.76 -20.48 0
v -53.12 -20.48 0
v -10.24 -21.76 0
v -10.88 -21.76 0
v -10.88 -21.12 0
v -10.24 -21.12 0
v -10.88 -21.76 0
v -11.52 -21.76 0
v -11.52 -21.12 0
v -10.88 -21.12 0
v -11.52 -21.76 0
v -12.16 -21.76 0
v -12.16 -21.12 0
v -11.52 -21.12 0
v -30.72 -21.76 0
v -31.36 -21.76 0
v -31.36 -21.12 0
v -30.72 -21.12 0
v -31.36 -21.76 0
v -32 -21.76 0
v -32 -21.12 0
v -31.36 -21.12 0
v -32 -21.76 0
v -32.64 -21.76 0
v -32.64 -21.12 0
v -32 -21.12 0
v -51.84 -21.76 0
v -52.48 -21.76 0
v -52.48 -21.12 0
v -51.84 -21.12 0
v -52.48 -21.76 0
v -53.12 -21.76 0
v -53.12 -21.12 0
v -52.48 -21.12 0
v -53.12 -21.76 0
v -53.76 -21.76 0
v -53.76 -21.12 0
v -53.12 -21.12 0
v -10.24 -22.4 0
v -10.88 -22.4 0
v -10.88 -21.76 0
v -10.24 -21.76 0
v -10.88 -22.4 0
v -11.52 -22.4 0
v -11.52 -21.76 0
v -10.88 -21.76 0
v -11.52 -22.4 0
v -12.16 -22.4 0
v -12.16 -21.76 0
v -11.52 -21.76 0
v -30.72 -22.4 0
v -31.36 -22.4 0
v -31.36 -21.76 0
v -30.72 -21.76 0
v -31.36 -22.4 0
v -32 -22.4 0
v -32 -21.76 0
v -31.36 -21.76 0
v -32 -22.4 0
v -32.64 -22.4 0
v -32.64 -21.76 0
v -32 -21.76 0
v -51.84 -22.4 0
v -52.48 -22.4 0
v -52.48 -21.76 0
v -51.84 -21.76 0
v -52.48 -22.4 0
v -53.12 -22.4 0
v -53.12 -21.76 0
v -52.48 -21.76 0
v -53.12 -22.4 0
v -53.76 -22.4 0
v -53.76 -21.76 0
v -53.12 -21.76 0
v -10.24 -23.04 0
v -10.88 -23.04 0
v -10.88 -22.4 0
v -10.24 -22.4 0
v -10.88 -23.04 0
v -11.52 -23.04 0
v -11.52 -22.4 0
v -10.88 -22.4 0
v -11.52 -23.04 0
v -12.16 -23.04 0
v -12.16 -22.4 0
v -11.52 -22.4 0
v -30.72 -23.04 0
v -31.36 -23.04 0
v -31.36 -22.4 0
v -30.72 -22.4 0
v -31.36 -23.04 0
v -32 -23.04 0
v -32 -22.4 0
v -31.36 -22.4 0
v -32 -23.04 0
v -32.64 -23.04 0
v -32.64 -22.4 0
v -32 -22.4 0
v -51.84 -23.04 0
v -52.48 -23.04 0
v -52.48 -22.4 0
v -51.84 -22.4 0
v -52.48 -23.04 0
v -53.12 -23.04 0
v -53.12 -22.4 0
v -52.48 -22.4 0
v -53.12 -23.04 0
v -53.76 -23.04 0
v -53.76 -22.4 0
v -53.12 -22.4 0
v -10.24 -23.68 0
v -10.88 -23.68 0
v -10.88 -23.04 0
v -10.24 -23.04 0
v -10.88 -23.68 0
v -11.52 -23.68 0
v -11.52 -23.04 0
v -10.88 -23.04 0
v -11.52 -23.68 0
v -12.16 -23.68 0
v -12.16 -23.04 0
v -11.52 -23.04 0
v -30.72 -23.68 0
v -31.36 -23.68 0
v -31.36 -23.04 0
v -30.72 -23.04 0
v -31.36 -23.68 0
v -32 -23.68 0
v -32 -23.04 0
v -31.36 -23.04 0
v -32 -23.68 0
v -32.64 -23.68 0
v -32.64 -23.04 0
v -32 -23.04 0
v -51.84 -23.68 0
v -52.48 -23.68 0
v -52.48 -23.04 0
v -51.84 -23.04 0
v -52.48 -23.68 0
v -53.12 -23.68 0
v -53.12 -23.04 0
v -52.48 -23.04 0
v -53.12 -23.68 0
v -53.76 -23.68 0
v -53.76 -23.04 0
v -53.12 -23.04 0
v -10.24 -24.32 0
v -10.88 -24.32 0
v -10.88 -23.68 0
v -10.24 -23.68 0
v -10.88 -24.32 0
v -11.52 -24.32 0
v -11.52 -23.68 0
v -10.88 -23.68 0
v -11.52 -24.32 0
v -12.16 -24.32 0
v -12.16 -23.68 0
v -11.52 -23.68 0
v -30.72 -24.32 0
v -31.36 -24.32 0
v -31.36 -23.68 0
v -30.72 -23.68 0
v -31.36 -24.32 0
v -32 -24.32 0
v -32 -23.68 0
v -31.36 -23.68 0
v -32 -24.32 0
v -32.64 -24.32 0
v -32.64 -23.68 0
v -32 -23.68 0
v -51.84 -24.32 0
v -52.48 -24.32 0
v -52.48 -23.68 0
v -51.84 -23.68 0
v -52.48 -24.32 0
v -53.12 -24.32 0
v -53.12 -23.68 0
v -52.48 -23.68 0
v -53.12 -24.32 0
v -53.76 -24.32 0
v -53.76 -23.68 0
v -53.12 -23.68 0
v -10.24 -24.96 0
v -10.88 -24.96 0
v -10.88 -24.32 0
v -10.24 -24.32 0
v -10.88 -24.96 0
v -11.52 -24.96 0
v -11.52 -24.32 0
v -10.88 -24.32 0
v -11.52 -24.96 0
v -12.16 -24.96 0
v -12.16 -24.32 0
v -11.52 -24.32 0
v -30.72 -24.96 0
v -31.36 -24.96 0
v -31.36 -24.32 0
v -30.72 -24.32 0
v -31.36 -24.96 0
v -32 -24.96 0
v -32 -24.32 0
v -31.36 -24.32 0
v -32 -24.96 0
v -32.64 -24.96 0
v -32.64 -24.32 0
v -32 -24.32 0
v -51.84 -24.96 0
v -52.48 -24.96 0
v -52.48 -24.32 0
v -51.84 -24.32 0
v -52.48 -24.96 0
v -53.12 -24.96 0
v -53.12 -24.32 0
v -52.48 -24.32 0
v -53.12 -24.96 0
v -53.76 -24.96 0
v -53.76 -24.32 0
v -53.12 -24.32 0
v -10.24 -25.6 0
v -10.88 -25.6 0
v -10.88 -24.96 0
v -10.24 -24.96 0
v -10.88 -25.6 0
v -11.52 -25.6 0
v -11.52 -24.96 0
v -10.88 -24.96 0
v -11.52 -25.6 0
v -12.16 -25.6 0
v -12.16 -24.96 0
v -11.52 -24.96 0
v -30.72 -25.6 0
v -31.36 -25.6 0
v -31.36 -24.96 0
v -30.72 -24.96 0
v -31.36 -25.6 0
v -32 -25.6 0
v -32 -24.96 0
v -31.36 -24.96 0
v -32 -25.6 0
v -32.64 -25.6 0
v -32.64 -24.96 0
v -32 -24.96 0
v -51.84 -25.6 0
v -52.48 -25.6 0
v -52.48 -24.96 0
v -51.84 -24.96 0
v -52.48 -25.6 0
v -53.12 -25.6 0
v -53.12 -24.96 0
v -52.48 -24.96 0
v -53.12 -25.6 0
v -53.76 -25.6 0
v -53.76 -24.96 0
v -53.12 -24.96 0
v -10.24 -26.24 0
v -10.88 -26.24 0
v -10.88 -25.6 0
v -10.24 -25.6 0
v -10.88 -26.24 0
v -11.52 -26.24 0
v -11.52 -25.6 0
v -10.88 -25.6 0
v -11.52 -26.24 0
v -12.16 -26.24 0
v -12.16 -25.6 0
v -11.52 -25.6 0
v -30.72 -26.24 0
v -31.36 -26.24 0
v -31.36 -25.6 0
v -30.72 -25.6 0
v -31.36 -26.24 0
v -32 -26.24 0
v -32 -25.6 0
v -31.36 -25.6 0
v -32 -26.24 0
v -32.64 -26.24 0
v -32.64 -25.6 0
v -32 -25.6 0
v -51.84 -26.24 0
v -52.48 -26.24 0
v -52.48 -25.6 0
v -51.84 -25.6 0
v -52.48 -26.24 0
v -53.12 -26.24 0
v -53.12 -25.6 0
v -52.48 -25.6 0
v -53.12 -26.24 0
v -53.76 -26.24 0
v -53.76 -25.6 0
v -53.12 -25.6 0
v -10.24 -26.88 0
v -10.88 -26.88 0
v -10.88 -26.24 0
v -10.24 -26.24 0
v -10.88 -26.88 0
v -11.52 -26.88 0
v -11.52 -26.24 0
v -10.88 -26.24 0
v -11.52 -26.88 0
v -12.16 -26.88 0
v -12.16 -26.24 0
v -11.52 -26.24 0
v -51.84 -26.88 0
v -52.48 -26.88 0
v -52.48 -26.24 0
v -51.84 -26.24 0
v -52.48 -26.88 0
v -53.12 -26.88 0
v -53.12 -26.24 0
v -52.48 -26.24 0
v -53.12 -26.88 0
v -53.76 -26.88 0
v -53.76 -26.24 0
v -53.12 -26.24 0
v -10.24 -27.52 0
v -10.88 -27.52 0
v -10.88 -26.88 0
v -10.24 -26.88 0
v -10.88 -27.52 0
v -11.52 -27.52 0
v -11.52 -26.88 0
v -10.88 -26.88 0
v -11.52 -27.52 0
v -12.16 -27.52 0
v -12.16 -26.88 0
v -11.52 -26.88 0
v -51.84 -27.52 0
v -52.48 -27.52 0
v -52.48 -26.88 0
v -51.84 -26.88 0
v -52.48 -27.52 0
v -53.12 -27.52 0
v -53.12 -26.88 0
v -52.48 -26.88 0
v -53.12 -27.52 0
v -53.76 -27.52 0
v -53.76 -26.88 0
v -53.12 -26.88 0
v -10.24 -28.16 0
v -10.88 -28.16 0
v -10.88 -27.52 0
v -10.24 -27.52 0
v -10.88 -28.16 0
v -11.52 -28.16 0
v -11.52 -27.52 0
v -10.88 -27.52 0
v -11.52 -28.16 0
v -12.16 -28.16 0
v -12.16 -27.52 0
v -11.52 -27.52 0
v -51.84 -28.16 0
v -52.48 -28.16 0
v -52.48 -27.52 0
v -51.84 -27.52 0
v -52.48 -28.16 0
v -53.12 -28.16 0
v -53.12 -27.52 0
v -52.48 -27.52 0
v -53.12 -28.16 0
v -53.76 -28.16 0
v -53.76 -27.52 0
v -53.12 -27.52 0
v -10.24 -28.8 0
v -10.88 -28.8 0
v -10.88 -28.16 0
v -10.24 -28.16 0
v -10.88 -28.8 0
v -11.52 -28.8 0
v -11.52 -28.16 0
v -10.88 -28.16 0
v -11.52 -28.8 0
v -12.16 -28.8 0
v -12.16 -28.16 0
v -11.52 -28.16 0
v -51.84 -28.8 0
v -52.48 -28.8 0
v -52.48 -28.16 0
v -51.84 -28.16 0
v -52.48 -28.8 0
v -53.12 -28.8 0
v -53.12 -28.16 0
v -52.48 -28.16 0
v -53.12 -28.8 0
v -53.76 -28.8 0
v -53.76 -28.16 0
v -53.12 -28.16 0
v -10.24 -29.44 0
v -10.88 -29.44 0
v -10.88 -28.8 0
v -10.24 -28.8 0
v -10.88 -29.44 0
v -11.52 -29.44 0
v -11.52 -28.8 0
v -10.88 -28.8 0
v -11.52 -29.44 0
v -12.16 -29.44 0
v -12.16 -28.8 0
v -11.52 -28.8 0
v -51.84 -29.44 0
v -52.48 -29.44 0
v -52.48 -28.8 0
v -51.84 -28.8 0
v -52.48 -29.44 0
v -53.12 -29.44 0
v -53.12 -28.8 0
v -52.48 -28.8 0
v -53.12 -29.44 0
v -53.76 -29.44 0
v -53.76 -28.8 0
v -53.12 -28.8 0
v -10.24 -30.08 0
v -10.88 -30.08 0
v -10.88 -29.44 0
v -10.24 -29.44 0
v -10.88 -30.08 0
v -11.52 -30.08 0
v -11.52 -29.44 0
v -10.88 -29.44 0
v -11.52 -30.08 0
v -12.16 -30.08 0
v -12.16 -29.44 0
v -11.52 -29.44 0
v -51.84 -30.08 0
v -52.48 -30.08 0
v -52.48 -29.44 0
v -51.84 -29.44 0
v -52.48 -30.08 0
v -53.12 -30.08 0
v -53.12 -29.44 0
v -52.48 -29.44 0
v -53.12 -30.08 0
v -53.76 -30.08 0
v -53.76 -29.44 0
v -53.12 -29.44 0
v -10.24 -30.72 0
v -10.88 -30.72 0
v -10.88 -30.08 0
v -10.24 -30.08 0
v -10.88 -30.72 0
v -11.52 -30.72 0
v -11.52 -30.08 0
v -10.88 -30.08 0
v -11.52 -30.72 0
v -12.16 -30.72 0
v -12.16 -30.08 0
v -11.52 -30.08 0
v -51.84 -30.72 0
v -52.48 -30.72 0
v -52.48 -30.08 0
v -51.84 -30.08 0
v -52.48 -30.72 0
v -53.12 -30.72 0
v -53.12 -30.08 0
v -52.48 -30.08 0
v -53.12 -30.72 0
v -53.76 -30.72 0
v -53.76 -30.08 0
v -53.12 -30.08 0
v -10.24 -31.36 0
v -10.88 -31.36 0
v -10.88 -30.72 0
v -10.24 -30.72 0
v -10.88 -31.36 0
v -11.52 -31.36 0
v -11.52 -30.72 0
v -10.88 -30.72 0
v -11.52 -31.36 0
v -12.16 -31.36 0
v -12.16 -30.72 0
v -11.52 -30.72 0
v -51.84 -31.36 0
v -52.48 -31.36 0
v -52.48 -30.72 0
v -51.84 -30.72 0
v -52.48 -31.36 0
v -53.12 -31.36 0
v -53.12 -30.72 0
v -52.48 -30.72 0
v -53.12 -31.36 0
v -53.76 -31.36 0
v -53.76 -30.72 0
v -53.12 -30.72 0
v -10.24 -32 0
v -10.88 -32 0
v -10.88 -31.36 0
v -10.24 -31.36 0
v -10.88 -32 0
v -11.52 -32 0
v -11.52 -31.36 0
v -10.88 -31.36 0
v -11.52 -32 0
v -12.16 -32 0
v -12.16 -31.36 0
v -11.52 -31.36 0
v -51.84 -32 0
v -52.48 -32 0
v -52.48 -31.36 0
v -51.84 -31.36 0
v -52.48 -32 0
v -53.12 -32 0
v -53.12 -31.36 0
v -52.48 -31.36 0
v -53.12 -32 0
v -53.76 -32 0
v -53.76 -31.36 0
v -53.12 -31.36 0

# Texture cooridinates (Count = 76)
vt 0.5 0.4
vt 0.6666667 0.4
vt 0.6666667 0.4666666
vt 0.5 0.4666666
vt 0.8333333 0.4
vt 0.8333333 0.4666666
vt 1 0.4
vt 1 0.4666666
vt 0 0.6666666
vt 0.1666667 0.6666666
vt 0.1666667 0.7333333
vt 0 0.7333333
vt 0.3333333 0.6666666
vt 0.3333333 0.7333333
vt 0.8333333 0.6666666
vt 1 0.6666666
vt 1 0.7333333
vt 0.8333333 0.7333333
vt 0 0.4
vt 0.1666667 0.4
vt 0.1666667 0.4666666
vt 0 0.4666666
vt 0.3333333 0.4
vt 0.3333333 0.4666666
vt 0.5 0.3333333
vt 0.6666667 0.3333333
vt 0.8333333 0.3333333
vt 1 0.3333333
vt 0 0.6
vt 0.1666667 0.6
vt 0.3333333 0.6
vt 0.8333333 0.6
vt 1 0.6
vt 0 0.3333333
vt 0.1666667 0.3333333
vt 0.3333333 0.3333333
vt 0.5 0.2666667
vt 0.6666667 0.2666667
vt 0.8333333 0.2666667
vt 1 0.2666667
vt 0 0.5333333
vt 0.1666667 0.5333333
vt 0.3333333 0.5333333
vt 0.8333333 0.5333333
vt 1 0.5333333
vt 0 0.2666667
vt 0.1666667 0.2666667
vt 0.3333333 0.2666667
vt 0.5 0.2
vt 0.6666667 0.2
vt 0.8333333 0.2
vt 1 0.2
vt 0 0.2
vt 0.1666667 0.2
vt 0.3333333 0.2
vt 0.5 0.1333333
vt 0.6666667 0.1333333
vt 0.8333333 0.1333333
vt 1 0.1333333
vt 0 0.1333333
vt 0.1666667 0.1333333
vt 0.3333333 0.1333333
vt 0.5 0.06666666
vt 0.6666667 0.06666666
vt 0.8333333 0.06666666
vt 1 0.06666666
vt 0 0.06666666
vt 0.1666667 0.06666666
vt 0.3333333 0.06666666
vt 0.6666667 0.5333333
vt 0.5 0.5333333
vt 0 0
vt 0.1666667 0
vt 0.3333333 0
vt 0.8333333 0
vt 1 0

# Normal
vn 0 0 -1

# Mesh description
g HwanseMap_mesh_0002

# Faces
f 1/1/1 2/2/1 3/3/1 4/4/1
f 5/2/1 6/5/1 7/6/1 8/3/1
f 9/5/1 10/7/1 11/8/1 12/6/1
f 13/9/1 14/10/1 15/11/1 16/12/1
f 17/10/1 18/13/1 19/14/1 20/11/1
f 21/15/1 22/16/1 23/17/1 24/18/1
f 25/19/1 26/20/1 27/21/1 28/22/1
f 29/20/1 30/23/1 31/24/1 32/21/1
f 33/23/1 34/1/1 35/4/1 36/24/1
f 37/25/1 38/26/1 39/2/1 40/1/1
f 41/26/1 42/27/1 43/5/1 44/2/1
f 45/27/1 46/28/1 47/7/1 48/5/1
f 49/29/1 50/30/1 51/10/1 52/9/1
f 53/30/1 54/31/1 55/13/1 56/10/1
f 57/32/1 58/33/1 59/16/1 60/15/1
f 61/34/1 62/35/1 63/20/1 64/19/1
f 65/35/1 66/36/1 67/23/1 68/20/1
f 69/36/1 70/25/1 71/1/1 72/23/1
f 73/37/1 74/38/1 75/26/1 76/25/1
f 77/38/1 78/39/1 79/27/1 80/26/1
f 81/39/1 82/40/1 83/28/1 84/27/1
f 85/41/1 86/42/1 87/30/1 88/29/1
f 89/42/1 90/43/1 91/31/1 92/30/1
f 93/44/1 94/45/1 95/33/1 96/32/1
f 97/46/1 98/47/1 99/35/1 100/34/1
f 101/47/1 102/48/1 103/36/1 104/35/1
f 105/48/1 106/37/1 107/25/1 108/36/1
f 109/49/1 110/50/1 111/38/1 112/37/1
f 113/50/1 114/51/1 115/39/1 116/38/1
f 117/51/1 118/52/1 119/40/1 120/39/1
f 121/22/1 122/21/1 123/42/1 124/41/1
f 125/21/1 126/24/1 127/43/1 128/42/1
f 129/6/1 130/8/1 131/45/1 132/44/1
f 133/53/1 134/54/1 135/47/1 136/46/1
f 137/54/1 138/55/1 139/48/1 140/47/1
f 141/55/1 142/49/1 143/37/1 144/48/1
f 145/56/1 146/57/1 147/50/1 148/49/1
f 149/57/1 150/58/1 151/51/1 152/50/1
f 153/58/1 154/59/1 155/52/1 156/51/1
f 157/19/1 158/20/1 159/21/1 160/22/1
f 161/20/1 162/23/1 163/24/1 164/21/1
f 165/5/1 166/7/1 167/8/1 168/6/1
f 169/60/1 170/61/1 171/54/1 172/53/1
f 173/61/1 174/62/1 175/55/1 176/54/1
f 177/62/1 178/56/1 179/49/1 180/55/1
f 181/63/1 182/64/1 183/57/1 184/56/1
f 185/64/1 186/65/1 187/58/1 188/57/1
f 189/65/1 190/66/1 191/59/1 192/58/1
f 193/34/1 194/35/1 195/20/1 196/19/1
f 197/35/1 198/36/1 199/23/1 200/20/1
f 201/27/1 202/28/1 203/7/1 204/5/1
f 205/67/1 206/68/1 207/61/1 208/60/1
f 209/68/1 210/69/1 211/62/1 212/61/1
f 213/69/1 214/63/1 215/56/1 216/62/1
f 217/4/1 218/3/1 219/70/1 220/71/1
f 221/3/1 222/6/1 223/44/1 224/70/1
f 225/6/1 226/8/1 227/45/1 228/44/1
f 229/46/1 230/47/1 231/35/1 232/34/1
f 233/47/1 234/48/1 235/36/1 236/35/1
f 237/39/1 238/40/1 239/28/1 240/27/1
f 241/22/1 242/21/1 243/42/1 244/41/1
f 245/21/1 246/24/1 247/43/1 248/42/1
f 249/24/1 250/4/1 251/71/1 252/43/1
f 253/1/1 254/2/1 255/3/1 256/4/1
f 257/2/1 258/5/1 259/6/1 260/3/1
f 261/5/1 262/7/1 263/8/1 264/6/1
f 265/53/1 266/54/1 267/47/1 268/46/1
f 269/54/1 270/55/1 271/48/1 272/47/1
f 273/51/1 274/52/1 275/40/1 276/39/1
f 277/19/1 278/20/1 279/21/1 280/22/1
f 281/20/1 282/23/1 283/24/1 284/21/1
f 285/23/1 286/1/1 287/4/1 288/24/1
f 289/25/1 290/26/1 291/2/1 292/1/1
f 293/26/1 294/27/1 295/5/1 296/2/1
f 297/27/1 298/28/1 299/7/1 300/5/1
f 301/60/1 302/61/1 303/54/1 304/53/1
f 305/61/1 306/62/1 307/55/1 308/54/1
f 309/58/1 310/59/1 311/52/1 312/51/1
f 313/34/1 314/35/1 315/20/1 316/19/1
f 317/35/1 318/36/1 319/23/1 320/20/1
f 321/36/1 322/25/1 323/1/1 324/23/1
f 325/37/1 326/38/1 327/26/1 328/25/1
f 329/38/1 330/39/1 331/27/1 332/26/1
f 333/39/1 334/40/1 335/28/1 336/27/1
f 337/67/1 338/68/1 339/61/1 340/60/1
f 341/68/1 342/69/1 343/62/1 344/61/1
f 345/65/1 346/66/1 347/59/1 348/58/1
f 349/46/1 350/47/1 351/35/1 352/34/1
f 353/47/1 354/48/1 355/36/1 356/35/1
f 357/48/1 358/37/1 359/25/1 360/36/1
f 361/49/1 362/50/1 363/38/1 364/37/1
f 365/50/1 366/51/1 367/39/1 368/38/1
f 369/51/1 370/52/1 371/40/1 372/39/1
f 373/72/1 374/73/1 375/68/1 376/67/1
f 377/73/1 378/74/1 379/69/1 380/68/1
f 381/75/1 382/76/1 383/66/1 384/65/1
f 385/53/1 386/54/1 387/47/1 388/46/1
f 389/54/1 390/55/1 391/48/1 392/47/1
f 393/55/1 394/49/1 395/37/1 396/48/1
f 397/56/1 398/57/1 399/50/1 400/49/1
f 401/57/1 402/58/1 403/51/1 404/50/1
f 405/58/1 406/59/1 407/52/1 408/51/1
f 409/60/1 410/61/1 411/54/1 412/53/1
f 413/61/1 414/62/1 415/55/1 416/54/1
f 417/62/1 418/56/1 419/49/1 420/55/1
f 421/63/1 422/64/1 423/57/1 424/56/1
f 425/64/1 426/65/1 427/58/1 428/57/1
f 429/65/1 430/66/1 431/59/1 432/58/1
f 433/67/1 434/68/1 435/61/1 436/60/1
f 437/68/1 438/69/1 439/62/1 440/61/1
f 441/69/1 442/63/1 443/56/1 444/62/1
f 445/4/1 446/3/1 447/70/1 448/71/1
f 449/3/1 450/6/1 451/44/1 452/70/1
f 453/6/1 454/8/1 455/45/1 456/44/1
f 457/22/1 458/21/1 459/42/1 460/41/1
f 461/21/1 462/24/1 463/43/1 464/42/1
f 465/24/1 466/4/1 467/71/1 468/43/1
f 469/1/1 470/2/1 471/3/1 472/4/1
f 473/2/1 474/5/1 475/6/1 476/3/1
f 477/5/1 478/7/1 479/8/1 480/6/1
f 481/19/1 482/20/1 483/21/1 484/22/1
f 485/20/1 486/23/1 487/24/1 488/21/1
f 489/23/1 490/1/1 491/4/1 492/24/1
f 493/25/1 494/26/1 495/2/1 496/1/1
f 497/26/1 498/27/1 499/5/1 500/2/1
f 501/27/1 502/28/1 503/7/1 504/5/1
f 505/34/1 506/35/1 507/20/1 508/19/1
f 509/35/1 510/36/1 511/23/1 512/20/1
f 513/36/1 514/25/1 515/1/1 516/23/1
f 517/37/1 518/38/1 519/26/1 520/25/1
f 521/38/1 522/39/1 523/27/1 524/26/1
f 525/39/1 526/40/1 527/28/1 528/27/1
f 529/46/1 530/47/1 531/35/1 532/34/1
f 533/47/1 534/48/1 535/36/1 536/35/1
f 537/48/1 538/37/1 539/25/1 540/36/1
f 541/49/1 542/50/1 543/38/1 544/37/1
f 545/50/1 546/51/1 547/39/1 548/38/1
f 549/51/1 550/52/1 551/40/1 552/39/1
f 553/53/1 554/54/1 555/47/1 556/46/1
f 557/54/1 558/55/1 559/48/1 560/47/1
f 561/55/1 562/49/1 563/37/1 564/48/1
f 565/56/1 566/57/1 567/50/1 568/49/1
f 569/57/1 570/58/1 571/51/1 572/50/1
f 573/58/1 574/59/1 575/52/1 576/51/1
f 577/60/1 578/61/1 579/54/1 580/53/1
f 581/61/1 582/62/1 583/55/1 584/54/1
f 585/62/1 586/56/1 587/49/1 588/55/1
f 589/63/1 590/64/1 591/57/1 592/56/1
f 593/64/1 594/65/1 595/58/1 596/57/1
f 597/65/1 598/66/1 599/59/1 600/58/1
f 601/67/1 602/68/1 603/61/1 604/60/1
f 605/68/1 606/69/1 607/62/1 608/61/1
f 609/69/1 610/63/1 611/56/1 612/62/1

