# Tiled2Unity generated file. Do not modify by hand.
# Wavefront file for 'HwanseMap_mesh_0003.obj'

# Vertices (Count = 288)
v -37.12 -21.76 0
v -37.76 -21.76 0
v -37.76 -21.12 0
v -37.12 -21.12 0
v -37.76 -21.76 0
v -38.4 -21.76 0
v -38.4 -21.12 0
v -37.76 -21.12 0
v -38.4 -21.76 0
v -39.04 -21.76 0
v -39.04 -21.12 0
v -38.4 -21.12 0
v -45.44 -21.76 0
v -46.08 -21.76 0
v -46.08 -21.12 0
v -45.44 -21.12 0
v -46.08 -21.76 0
v -46.72 -21.76 0
v -46.72 -21.12 0
v -46.08 -21.12 0
v -46.72 -21.76 0
v -47.36 -21.76 0
v -47.36 -21.12 0
v -46.72 -21.12 0
v -37.12 -22.4 0
v -37.76 -22.4 0
v -37.76 -21.76 0
v -37.12 -21.76 0
v -37.76 -22.4 0
v -38.4 -22.4 0
v -38.4 -21.76 0
v -37.76 -21.76 0
v -38.4 -22.4 0
v -39.04 -22.4 0
v -39.04 -21.76 0
v -38.4 -21.76 0
v -45.44 -22.4 0
v -46.08 -22.4 0
v -46.08 -21.76 0
v -45.44 -21.76 0
v -46.08 -22.4 0
v -46.72 -22.4 0
v -46.72 -21.76 0
v -46.08 -21.76 0
v -46.72 -22.4 0
v -47.36 -22.4 0
v -47.36 -21.76 0
v -46.72 -21.76 0
v -37.12 -23.04 0
v -37.76 -23.04 0
v -37.76 -22.4 0
v -37.12 -22.4 0
v -37.76 -23.04 0
v -38.4 -23.04 0
v -38.4 -22.4 0
v -37.76 -22.4 0
v -38.4 -23.04 0
v -39.04 -23.04 0
v -39.04 -22.4 0
v -38.4 -22.4 0
v -45.44 -23.04 0
v -46.08 -23.04 0
v -46.08 -22.4 0
v -45.44 -22.4 0
v -46.08 -23.04 0
v -46.72 -23.04 0
v -46.72 -22.4 0
v -46.08 -22.4 0
v -46.72 -23.04 0
v -47.36 -23.04 0
v -47.36 -22.4 0
v -46.72 -22.4 0
v -32.64 -24.32 0
v -33.28 -24.32 0
v -33.28 -23.68 0
v -32.64 -23.68 0
v -33.28 -24.32 0
v -33.92 -24.32 0
v -33.92 -23.68 0
v -33.28 -23.68 0
v -33.92 -24.32 0
v -34.56 -24.32 0
v -34.56 -23.68 0
v -33.92 -23.68 0
v -34.56 -24.32 0
v -35.2 -24.32 0
v -35.2 -23.68 0
v -34.56 -23.68 0
v -40.96 -24.32 0
v -41.6 -24.32 0
v -41.6 -23.68 0
v -40.96 -23.68 0
v -41.6 -24.32 0
v -42.24 -24.32 0
v -42.24 -23.68 0
v -41.6 -23.68 0
v -42.24 -24.32 0
v -42.88 -24.32 0
v -42.88 -23.68 0
v -42.24 -23.68 0
v -42.88 -24.32 0
v -43.52 -24.32 0
v -43.52 -23.68 0
v -42.88 -23.68 0
v -49.28 -24.32 0
v -49.92 -24.32 0
v -49.92 -23.68 0
v -49.28 -23.68 0
v -49.92 -24.32 0
v -50.56 -24.32 0
v -50.56 -23.68 0
v -49.92 -23.68 0
v -50.56 -24.32 0
v -51.2 -24.32 0
v -51.2 -23.68 0
v -50.56 -23.68 0
v -51.2 -24.32 0
v -51.84 -24.32 0
v -51.84 -23.68 0
v -51.2 -23.68 0
v -32.64 -24.96 0
v -33.28 -24.96 0
v -33.28 -24.32 0
v -32.64 -24.32 0
v -33.28 -24.96 0
v -33.92 -24.96 0
v -33.92 -24.32 0
v -33.28 -24.32 0
v -33.92 -24.96 0
v -34.56 -24.96 0
v -34.56 -24.32 0
v -33.92 -24.32 0
v -34.56 -24.96 0
v -35.2 -24.96 0
v -35.2 -24.32 0
v -34.56 -24.32 0
v -40.96 -24.96 0
v -41.6 -24.96 0
v -41.6 -24.32 0
v -40.96 -24.32 0
v -41.6 -24.96 0
v -42.24 -24.96 0
v -42.24 -24.32 0
v -41.6 -24.32 0
v -42.24 -24.96 0
v -42.88 -24.96 0
v -42.88 -24.32 0
v -42.24 -24.32 0
v -42.88 -24.96 0
v -43.52 -24.96 0
v -43.52 -24.32 0
v -42.88 -24.32 0
v -49.28 -24.96 0
v -49.92 -24.96 0
v -49.92 -24.32 0
v -49.28 -24.32 0
v -49.92 -24.96 0
v -50.56 -24.96 0
v -50.56 -24.32 0
v -49.92 -24.32 0
v -50.56 -24.96 0
v -51.2 -24.96 0
v -51.2 -24.32 0
v -50.56 -24.32 0
v -51.2 -24.96 0
v -51.84 -24.96 0
v -51.84 -24.32 0
v -51.2 -24.32 0
v -32.64 -25.6 0
v -33.28 -25.6 0
v -33.28 -24.96 0
v -32.64 -24.96 0
v -33.28 -25.6 0
v -33.92 -25.6 0
v -33.92 -24.96 0
v -33.28 -24.96 0
v -33.92 -25.6 0
v -34.56 -25.6 0
v -34.56 -24.96 0
v -33.92 -24.96 0
v -34.56 -25.6 0
v -35.2 -25.6 0
v -35.2 -24.96 0
v -34.56 -24.96 0
v -40.96 -25.6 0
v -41.6 -25.6 0
v -41.6 -24.96 0
v -40.96 -24.96 0
v -41.6 -25.6 0
v -42.24 -25.6 0
v -42.24 -24.96 0
v -41.6 -24.96 0
v -42.24 -25.6 0
v -42.88 -25.6 0
v -42.88 -24.96 0
v -42.24 -24.96 0
v -42.88 -25.6 0
v -43.52 -25.6 0
v -43.52 -24.96 0
v -42.88 -24.96 0
v -49.28 -25.6 0
v -49.92 -25.6 0
v -49.92 -24.96 0
v -49.28 -24.96 0
v -49.92 -25.6 0
v -50.56 -25.6 0
v -50.56 -24.96 0
v -49.92 -24.96 0
v -50.56 -25.6 0
v -51.2 -25.6 0
v -51.2 -24.96 0
v -50.56 -24.96 0
v -51.2 -25.6 0
v -51.84 -25.6 0
v -51.84 -24.96 0
v -51.2 -24.96 0
v -37.12 -26.24 0
v -37.76 -26.24 0
v -37.76 -25.6 0
v -37.12 -25.6 0
v -37.76 -26.24 0
v -38.4 -26.24 0
v -38.4 -25.6 0
v -37.76 -25.6 0
v -38.4 -26.24 0
v -39.04 -26.24 0
v -39.04 -25.6 0
v -38.4 -25.6 0
v -45.44 -26.24 0
v -46.08 -26.24 0
v -46.08 -25.6 0
v -45.44 -25.6 0
v -46.08 -26.24 0
v -46.72 -26.24 0
v -46.72 -25.6 0
v -46.08 -25.6 0
v -46.72 -26.24 0
v -47.36 -26.24 0
v -47.36 -25.6 0
v -46.72 -25.6 0
v -37.12 -26.88 0
v -37.76 -26.88 0
v -37.76 -26.24 0
v -37.12 -26.24 0
v -37.76 -26.88 0
v -38.4 -26.88 0
v -38.4 -26.24 0
v -37.76 -26.24 0
v -38.4 -26.88 0
v -39.04 -26.88 0
v -39.04 -26.24 0
v -38.4 -26.24 0
v -45.44 -26.88 0
v -46.08 -26.88 0
v -46.08 -26.24 0
v -45.44 -26.24 0
v -46.08 -26.88 0
v -46.72 -26.88 0
v -46.72 -26.24 0
v -46.08 -26.24 0
v -46.72 -26.88 0
v -47.36 -26.88 0
v -47.36 -26.24 0
v -46.72 -26.24 0
v -37.12 -27.52 0
v -37.76 -27.52 0
v -37.76 -26.88 0
v -37.12 -26.88 0
v -37.76 -27.52 0
v -38.4 -27.52 0
v -38.4 -26.88 0
v -37.76 -26.88 0
v -38.4 -27.52 0
v -39.04 -27.52 0
v -39.04 -26.88 0
v -38.4 -26.88 0
v -45.44 -27.52 0
v -46.08 -27.52 0
v -46.08 -26.88 0
v -45.44 -26.88 0
v -46.08 -27.52 0
v -46.72 -27.52 0
v -46.72 -26.88 0
v -46.08 -26.88 0
v -46.72 -27.52 0
v -47.36 -27.52 0
v -47.36 -26.88 0
v -46.72 -26.88 0

# Texture cooridinates (Count = 20)
vt 0 0.6666666
vt 0.25 0.6666666
vt 0.25 1
vt 0 1
vt 0.5 0.6666666
vt 0.5 1
vt 0.75 0.6666666
vt 1 0.6666666
vt 1 1
vt 0.75 1
vt 0 0.3333333
vt 0.25 0.3333333
vt 0.5 0.3333333
vt 0.75 0.3333333
vt 1 0.3333333
vt 0 0
vt 0.25 0
vt 0.5 0
vt 0.75 0
vt 1 0

# Normal
vn 0 0 -1

# Mesh description
g HwanseMap_mesh_0003

# Faces
f 1/1/1 2/2/1 3/3/1 4/4/1
f 5/2/1 6/5/1 7/6/1 8/3/1
f 9/7/1 10/8/1 11/9/1 12/10/1
f 13/1/1 14/2/1 15/3/1 16/4/1
f 17/5/1 18/7/1 19/10/1 20/6/1
f 21/7/1 22/8/1 23/9/1 24/10/1
f 25/11/1 26/12/1 27/2/1 28/1/1
f 29/12/1 30/13/1 31/5/1 32/2/1
f 33/14/1 34/15/1 35/8/1 36/7/1
f 37/11/1 38/12/1 39/2/1 40/1/1
f 41/13/1 42/14/1 43/7/1 44/5/1
f 45/14/1 46/15/1 47/8/1 48/7/1
f 49/16/1 50/17/1 51/12/1 52/11/1
f 53/17/1 54/18/1 55/13/1 56/12/1
f 57/19/1 58/20/1 59/15/1 60/14/1
f 61/16/1 62/17/1 63/12/1 64/11/1
f 65/18/1 66/19/1 67/14/1 68/13/1
f 69/19/1 70/20/1 71/15/1 72/14/1
f 73/1/1 74/2/1 75/3/1 76/4/1
f 77/2/1 78/5/1 79/6/1 80/3/1
f 81/5/1 82/7/1 83/10/1 84/6/1
f 85/7/1 86/8/1 87/9/1 88/10/1
f 89/1/1 90/2/1 91/3/1 92/4/1
f 93/2/1 94/5/1 95/6/1 96/3/1
f 97/5/1 98/7/1 99/10/1 100/6/1
f 101/7/1 102/8/1 103/9/1 104/10/1
f 105/1/1 106/2/1 107/3/1 108/4/1
f 109/2/1 110/5/1 111/6/1 112/3/1
f 113/5/1 114/7/1 115/10/1 116/6/1
f 117/7/1 118/8/1 119/9/1 120/10/1
f 121/11/1 122/12/1 123/2/1 124/1/1
f 125/12/1 126/13/1 127/5/1 128/2/1
f 129/13/1 130/14/1 131/7/1 132/5/1
f 133/14/1 134/15/1 135/8/1 136/7/1
f 137/11/1 138/12/1 139/2/1 140/1/1
f 141/12/1 142/13/1 143/5/1 144/2/1
f 145/13/1 146/14/1 147/7/1 148/5/1
f 149/14/1 150/15/1 151/8/1 152/7/1
f 153/11/1 154/12/1 155/2/1 156/1/1
f 157/12/1 158/13/1 159/5/1 160/2/1
f 161/13/1 162/14/1 163/7/1 164/5/1
f 165/14/1 166/15/1 167/8/1 168/7/1
f 169/16/1 170/17/1 171/12/1 172/11/1
f 173/17/1 174/18/1 175/13/1 176/12/1
f 177/18/1 178/19/1 179/14/1 180/13/1
f 181/19/1 182/20/1 183/15/1 184/14/1
f 185/16/1 186/17/1 187/12/1 188/11/1
f 189/17/1 190/18/1 191/13/1 192/12/1
f 193/18/1 194/19/1 195/14/1 196/13/1
f 197/19/1 198/20/1 199/15/1 200/14/1
f 201/16/1 202/17/1 203/12/1 204/11/1
f 205/17/1 206/18/1 207/13/1 208/12/1
f 209/18/1 210/19/1 211/14/1 212/13/1
f 213/19/1 214/20/1 215/15/1 216/14/1
f 217/1/1 218/2/1 219/3/1 220/4/1
f 221/2/1 222/5/1 223/6/1 224/3/1
f 225/7/1 226/8/1 227/9/1 228/10/1
f 229/1/1 230/2/1 231/3/1 232/4/1
f 233/5/1 234/7/1 235/10/1 236/6/1
f 237/7/1 238/8/1 239/9/1 240/10/1
f 241/11/1 242/12/1 243/2/1 244/1/1
f 245/12/1 246/13/1 247/5/1 248/2/1
f 249/14/1 250/15/1 251/8/1 252/7/1
f 253/11/1 254/12/1 255/2/1 256/1/1
f 257/13/1 258/14/1 259/7/1 260/5/1
f 261/14/1 262/15/1 263/8/1 264/7/1
f 265/16/1 266/17/1 267/12/1 268/11/1
f 269/17/1 270/18/1 271/13/1 272/12/1
f 273/19/1 274/20/1 275/15/1 276/14/1
f 277/16/1 278/17/1 279/12/1 280/11/1
f 281/18/1 282/19/1 283/14/1 284/13/1
f 285/19/1 286/20/1 287/15/1 288/14/1

